<mxfile host="app.diagrams.net" modified="2023-08-09T02:48:30.289Z" agent="Mozilla/5.0 (Windows NT 10.0; Win64; x64) AppleWebKit/537.36 (KHTML, like Gecko) Chrome/115.0.0.0 Safari/537.36" etag="hnHMohGqBPfAOzif824J" version="21.6.5" type="github">
  <diagram name="第 1 页" id="PItQMmxoQ5xieft_fqYC">
    <mxGraphModel dx="1912" dy="2211" grid="1" gridSize="10" guides="1" tooltips="1" connect="1" arrows="1" fold="1" page="1" pageScale="1" pageWidth="1920" pageHeight="1200" math="0" shadow="0">
      <root>
        <mxCell id="0" />
        <mxCell id="1" parent="0" />
        <mxCell id="sPuchfOHp-KZ45J7oCVx-1" value="&lt;font style=&quot;font-size: 18px;&quot;&gt;Configuration Export password&lt;/font&gt;" style="rounded=0;whiteSpace=wrap;html=1;" parent="1" vertex="1">
          <mxGeometry x="30" y="-645" width="200" height="120" as="geometry" />
        </mxCell>
        <mxCell id="A5CWA4rdF92DzPzr8eIe-2" value="" style="rounded=0;whiteSpace=wrap;html=1;" vertex="1" parent="1">
          <mxGeometry x="80" y="240" width="200" height="120" as="geometry" />
        </mxCell>
        <mxCell id="A5CWA4rdF92DzPzr8eIe-3" value="" style="rounded=0;whiteSpace=wrap;html=1;" vertex="1" parent="1">
          <mxGeometry x="80" y="400" width="200" height="120" as="geometry" />
        </mxCell>
        <mxCell id="A5CWA4rdF92DzPzr8eIe-4" value="" style="rounded=0;whiteSpace=wrap;html=1;" vertex="1" parent="1">
          <mxGeometry x="80" y="560" width="200" height="120" as="geometry" />
        </mxCell>
        <mxCell id="A5CWA4rdF92DzPzr8eIe-5" value="&lt;font style=&quot;font-size: 25px;&quot;&gt;MDM&lt;/font&gt;" style="rounded=0;whiteSpace=wrap;html=1;" vertex="1" parent="1">
          <mxGeometry x="1400" y="-610" width="310" height="340" as="geometry" />
        </mxCell>
        <mxCell id="A5CWA4rdF92DzPzr8eIe-12" value="&lt;font style=&quot;font-size: 20px;&quot;&gt;send Broadcast request password to enable function&lt;/font&gt;" style="text;html=1;align=center;verticalAlign=middle;resizable=0;points=[];autosize=1;strokeColor=none;fillColor=none;" vertex="1" parent="1">
          <mxGeometry x="829" y="-630" width="490" height="40" as="geometry" />
        </mxCell>
        <mxCell id="A5CWA4rdF92DzPzr8eIe-13" value="&lt;font style=&quot;font-size: 20px;&quot;&gt;send back Broadcast included password compare result&lt;br&gt;&lt;/font&gt;" style="text;html=1;align=center;verticalAlign=middle;resizable=0;points=[];autosize=1;strokeColor=none;fillColor=none;" vertex="1" parent="1">
          <mxGeometry x="240" y="-290" width="520" height="40" as="geometry" />
        </mxCell>
        <mxCell id="A5CWA4rdF92DzPzr8eIe-14" value="&lt;font style=&quot;font-size: 20px;&quot;&gt;check if password exist&lt;/font&gt;" style="rounded=0;whiteSpace=wrap;html=1;" vertex="1" parent="1">
          <mxGeometry x="520" y="-640" width="290" height="110" as="geometry" />
        </mxCell>
        <mxCell id="A5CWA4rdF92DzPzr8eIe-15" value="" style="endArrow=classic;html=1;rounded=0;exitX=-0.004;exitY=0.158;exitDx=0;exitDy=0;exitPerimeter=0;" edge="1" parent="1" source="A5CWA4rdF92DzPzr8eIe-5">
          <mxGeometry width="50" height="50" relative="1" as="geometry">
            <mxPoint x="810" y="-300" as="sourcePoint" />
            <mxPoint x="810" y="-560" as="targetPoint" />
          </mxGeometry>
        </mxCell>
        <mxCell id="A5CWA4rdF92DzPzr8eIe-16" value="" style="endArrow=classic;html=1;rounded=0;exitX=0;exitY=0.5;exitDx=0;exitDy=0;entryX=1;entryY=0.5;entryDx=0;entryDy=0;" edge="1" parent="1" source="A5CWA4rdF92DzPzr8eIe-14" target="sPuchfOHp-KZ45J7oCVx-1">
          <mxGeometry width="50" height="50" relative="1" as="geometry">
            <mxPoint x="810" y="-300" as="sourcePoint" />
            <mxPoint x="320" y="-585" as="targetPoint" />
          </mxGeometry>
        </mxCell>
        <mxCell id="A5CWA4rdF92DzPzr8eIe-18" value="" style="endArrow=none;html=1;rounded=0;entryX=0.543;entryY=1.003;entryDx=0;entryDy=0;entryPerimeter=0;" edge="1" parent="1" target="A5CWA4rdF92DzPzr8eIe-14">
          <mxGeometry width="50" height="50" relative="1" as="geometry">
            <mxPoint x="680" y="-440" as="sourcePoint" />
            <mxPoint x="660" y="-520" as="targetPoint" />
          </mxGeometry>
        </mxCell>
        <mxCell id="A5CWA4rdF92DzPzr8eIe-19" value="" style="endArrow=classic;html=1;rounded=0;entryX=0;entryY=0.5;entryDx=0;entryDy=0;" edge="1" parent="1" target="A5CWA4rdF92DzPzr8eIe-5">
          <mxGeometry width="50" height="50" relative="1" as="geometry">
            <mxPoint x="680" y="-440" as="sourcePoint" />
            <mxPoint x="860" y="-350" as="targetPoint" />
          </mxGeometry>
        </mxCell>
        <mxCell id="A5CWA4rdF92DzPzr8eIe-20" value="&lt;font style=&quot;font-size: 20px;&quot;&gt;if password not exist send back broadcast&lt;br&gt;&amp;nbsp;request password setting&lt;/font&gt;" style="text;html=1;align=center;verticalAlign=middle;resizable=0;points=[];autosize=1;strokeColor=none;fillColor=none;" vertex="1" parent="1">
          <mxGeometry x="800" y="-420" width="390" height="60" as="geometry" />
        </mxCell>
        <mxCell id="A5CWA4rdF92DzPzr8eIe-21" value="&lt;font style=&quot;font-size: 20px;&quot;&gt;check password&lt;/font&gt;" style="text;html=1;align=center;verticalAlign=middle;resizable=0;points=[];autosize=1;strokeColor=none;fillColor=none;" vertex="1" parent="1">
          <mxGeometry x="290" y="-640" width="170" height="40" as="geometry" />
        </mxCell>
        <mxCell id="A5CWA4rdF92DzPzr8eIe-22" value="" style="endArrow=none;html=1;rounded=0;entryX=0.443;entryY=1.006;entryDx=0;entryDy=0;entryPerimeter=0;" edge="1" parent="1" target="sPuchfOHp-KZ45J7oCVx-1">
          <mxGeometry width="50" height="50" relative="1" as="geometry">
            <mxPoint x="119" y="-310" as="sourcePoint" />
            <mxPoint x="860" y="-230" as="targetPoint" />
          </mxGeometry>
        </mxCell>
        <mxCell id="A5CWA4rdF92DzPzr8eIe-23" value="" style="endArrow=classic;html=1;rounded=0;entryX=-0.009;entryY=0.895;entryDx=0;entryDy=0;entryPerimeter=0;" edge="1" parent="1" target="A5CWA4rdF92DzPzr8eIe-5">
          <mxGeometry width="50" height="50" relative="1" as="geometry">
            <mxPoint x="120" y="-310" as="sourcePoint" />
            <mxPoint x="860" y="-230" as="targetPoint" />
          </mxGeometry>
        </mxCell>
      </root>
    </mxGraphModel>
  </diagram>
</mxfile>
